solid v3d.csg
  facet normal 0.4531538935183248 0.8660254037844386 0.21130913087035
    outer loop
      vertex -3034.2588160320265 2223.7575590552005 4572.440194129191
      vertex -4027.467613407488 2540.282031163354 5405.145336199855
      vertex -273.3313226421201 148.76379745730384 7155.727838341347
    endloop
  endfacet
  facet normal 0.4531538935183248 0.8660254037844386 0.21130913087035
    outer loop
      vertex -3034.2588160320265 2223.7575590552005 4572.440194129191
      vertex -273.3313226421201 148.76379745730384 7155.727838341347
      vertex -273.864484586904 465.28826956545777 5859.633210409699
    endloop
  endfacet
  facet normal 0.45315389351832525 -0.8660254037844386 0.21130913087034955
    outer loop
      vertex -3034.258816032026 -2223.757559055201 4572.440194129191
      vertex -273.8644845869039 -465.28826956545777 5859.633210409699
      vertex -273.3313226421201 -148.7637974573039 7155.727838341347
    endloop
  endfacet
  facet normal 0.45315389351832525 -0.8660254037844386 0.21130913087034955
    outer loop
      vertex -3034.258816032026 -2223.757559055201 4572.440194129191
      vertex -273.3313226421201 -148.7637974573039 7155.727838341347
      vertex -4027.467613407488 -2540.2820311633554 5405.145336199855
    endloop
  endfacet
  facet normal -0.6424724350146078 -6.569120735549044E-17 -0.766308795621191
    outer loop
      vertex -3034.2588160320265 2223.7575590552005 4572.440194129191
      vertex -3034.258816032026 -2223.757559055201 4572.440194129191
      vertex -4027.467613407488 -2540.2820311633554 5405.145336199855
    endloop
  endfacet
  facet normal -0.6424724350146078 -6.569120735549044E-17 -0.766308795621191
    outer loop
      vertex -3034.2588160320265 2223.7575590552005 4572.440194129191
      vertex -4027.467613407488 -2540.2820311633554 5405.145336199855
      vertex -4027.467613407488 2540.282031163354 5405.145336199855
    endloop
  endfacet
  facet normal 0.9999999153913405 0.0 -4.11360319056811E-4
    outer loop
      vertex -273.864484586904 465.28826956545777 5859.633210409699
      vertex -273.3313226421201 148.76379745730384 7155.727838341347
      vertex -273.3313226421201 -148.7637974573039 7155.727838341347
    endloop
  endfacet
  facet normal 0.9999999153913405 0.0 -4.11360319056811E-4
    outer loop
      vertex -273.864484586904 465.28826956545777 5859.633210409699
      vertex -273.3313226421201 -148.7637974573039 7155.727838341347
      vertex -273.8644845869039 -465.28826956545777 5859.633210409699
    endloop
  endfacet
  facet normal 0.4226182617406995 0.0 -0.90630778703665
    outer loop
      vertex -3034.2588160320265 2223.7575590552005 4572.440194129191
      vertex -273.864484586904 465.28826956545777 5859.633210409699
      vertex -273.8644845869039 -465.28826956545777 5859.633210409699
    endloop
  endfacet
  facet normal 0.4226182617406995 0.0 -0.90630778703665
    outer loop
      vertex -3034.2588160320265 2223.7575590552005 4572.440194129191
      vertex -273.8644845869039 -465.28826956545777 5859.633210409699
      vertex -3034.258816032026 -2223.757559055201 4572.440194129191
    endloop
  endfacet
  facet normal -0.42261826174069955 0.0 0.9063077870366498
    outer loop
      vertex -4027.467613407488 2540.282031163354 5405.145336199855
      vertex -4027.467613407488 -2540.2820311633554 5405.145336199855
      vertex -273.3313226421201 -148.7637974573039 7155.727838341347
    endloop
  endfacet
  facet normal -0.42261826174069955 0.0 0.9063077870366498
    outer loop
      vertex -4027.467613407488 2540.282031163354 5405.145336199855
      vertex -273.3313226421201 -148.7637974573039 7155.727838341347
      vertex -273.3313226421201 148.76379745730384 7155.727838341347
    endloop
  endfacet
endsolid v3d.csg
